<svg xmlns="http://www.w3.org/2000/svg" xmlns:svg="http://www.w3.org/2000/svg" id="Layer_2" width="51.2" height="38.52" version="1.1" viewBox="0 0 51.2 38.52"><defs id="defs4"><style id="style2">.cls-1{fill:#cc2faa}</style></defs><path id="path6" d="m 26.89,12.15 c 1.27,-1.27 3.33,-1.27 4.59,0 1.26,1.27 1.26,3.32 0,4.59 -1.26,1.27 -3.33,1.27 -4.59,0 -1.26,-1.27 -1.26,-3.32 0,-4.59" class="cls-1"/><polygon id="polygon8" points="16.1 27.25 16.11 21.52 39.95 45.19 51.49 45.17 51.53 22.49 55.6 18.42 55.55 49.23 38.27 49.26" class="cls-1" transform="translate(-4.4,-10.74)"/><polygon id="polygon10" points="4.4 41.62 4.45 10.77 21.74 10.74 30.38 19.31 27.5 22.19 20.05 14.81 8.52 14.83 8.48 37.55" class="cls-1" transform="translate(-4.4,-10.74)"/><polygon id="polygon12" points="39.52 28.41 44.48 33.33 44.47 39.06 36.66 31.31" class="cls-1" transform="translate(-4.4,-10.74)"/></svg>